<svg width="1279" height="1315" viewBox="0 0 1279 1315" fill="none" xmlns="http://www.w3.org/2000/svg">
<g opacity="0.7" filter="url(#filter0_f_101_316)">
<circle cx="619" cy="657.928" r="457" fill="url(#paint0_linear_101_316)"/>
</g>
<g filter="url(#filter1_f_101_316)">
<circle cx="722" cy="713.803" r="457" fill="white"/>
</g>
<mask id="mask0_101_316" style="mask-type:alpha" maskUnits="userSpaceOnUse" x="299" y="290" width="914" height="914">
<circle cx="756" cy="747" r="457" fill="#D9D9D9"/>
</mask>
<g mask="url(#mask0_101_316)">
<circle cx="756" cy="747" r="457" fill="url(#paint1_linear_101_316)"/>
<circle cx="756" cy="747" r="457" fill="url(#paint2_radial_101_316)"/>
<g style="mix-blend-mode:color-dodge">
<path fill-rule="evenodd" clip-rule="evenodd" d="M347.731 991.66L340.193 987.97C339.596 987.678 339.06 987.136 338.704 986.463L334.816 979.124C331.224 972.341 329.408 970.154 327.131 968.184C324.854 966.215 322.409 965.019 319.904 964.647C317.399 964.276 315.238 964.516 310.308 967.127L303.256 970.862C303.052 970.97 302.767 970.83 302.619 970.55C302.547 970.416 302.518 970.266 302.537 970.134L303.72 961.826C303.814 961.167 304.141 960.651 304.63 960.392L307.082 959.094C313.656 955.612 316.538 955.291 319.878 955.787C323.217 956.282 326.477 957.878 329.514 960.503C332.55 963.129 334.971 966.045 339.761 975.089L348.171 990.968C348.319 991.248 348.274 991.562 348.071 991.67C347.973 991.722 347.851 991.718 347.731 991.66ZM337.8 1045.63L338.984 1037.32C339.077 1036.66 339.405 1036.15 339.894 1035.89L345.228 1033.06C350.159 1030.45 351.572 1028.8 352.672 1026.52C353.772 1024.24 354.156 1021.54 353.807 1018.55C353.457 1015.56 352.668 1012.83 349.076 1006.05L343.938 996.346C343.789 996.066 343.834 995.751 344.038 995.643C344.136 995.591 344.258 995.595 344.377 995.654L351.915 999.343C352.513 999.636 353.049 1000.18 353.405 1000.85L355.192 1004.22C359.981 1013.27 361.034 1016.91 361.5 1020.9C361.965 1024.88 361.453 1028.48 359.987 1031.52C358.52 1034.56 356.635 1036.76 350.062 1040.24L338.519 1046.36C338.316 1046.46 338.031 1046.33 337.882 1046.04C337.811 1045.91 337.781 1045.76 337.8 1045.63ZM288.235 1018.89L295.773 1022.58C296.37 1022.88 296.906 1023.42 297.262 1024.09L301.149 1031.43C304.742 1038.21 306.558 1040.4 308.835 1042.37C311.112 1044.34 313.557 1045.54 316.062 1045.91C318.567 1046.28 320.728 1046.04 325.658 1043.43L332.71 1039.69C332.914 1039.58 333.199 1039.72 333.347 1040C333.419 1040.14 333.448 1040.29 333.429 1040.42L332.246 1048.73C332.152 1049.39 331.825 1049.9 331.336 1050.16L328.884 1051.46C322.31 1054.94 319.428 1055.26 316.088 1054.77C312.749 1054.27 309.489 1052.68 306.452 1050.05C303.416 1047.43 300.995 1044.51 296.205 1035.47L287.795 1019.59C287.647 1019.31 287.692 1018.99 287.895 1018.88C287.993 1018.83 288.115 1018.84 288.235 1018.89ZM296.982 973.234C296.889 973.892 296.561 974.408 296.072 974.667L290.738 977.492C285.807 980.103 284.394 981.756 283.294 984.037C282.194 986.318 281.81 989.013 282.159 992.003C282.509 994.993 283.298 997.724 286.89 1004.51L292.028 1014.21C292.177 1014.49 292.132 1014.8 291.928 1014.91C291.83 1014.96 291.708 1014.96 291.589 1014.9L284.051 1011.21C283.453 1010.92 282.917 1010.38 282.561 1009.7L280.774 1006.33C275.985 997.287 274.932 993.645 274.466 989.658C274.001 985.671 274.512 982.078 275.979 979.037C277.446 975.996 279.331 973.792 285.904 970.31L297.446 964.197C297.65 964.089 297.936 964.229 298.084 964.509C298.155 964.644 298.185 964.793 298.166 964.925L296.982 973.234ZM331.83 983.905L321.743 979.236C321.063 978.903 320.395 978.753 319.775 978.768C319.258 978.771 318.757 978.889 318.298 979.132L300.751 988.425C300.547 988.533 300.262 988.394 300.113 988.113C300.042 987.979 300.013 987.829 300.032 987.697L301.219 979.386C301.313 978.728 301.64 978.213 302.129 977.954L316.112 970.548C320.184 968.391 325.891 971.184 328.858 976.786L332.259 983.208C332.407 983.488 332.362 983.802 332.159 983.91C332.064 983.96 331.946 983.958 331.83 983.905ZM340.276 1028.1L341.626 1016.91C341.733 1016.16 341.683 1015.38 341.504 1014.61C341.362 1013.97 341.126 1013.32 340.792 1012.69L328.006 988.548C327.858 988.268 327.902 987.954 328.106 987.846C328.204 987.794 328.326 987.798 328.446 987.856L335.987 991.551C336.584 991.844 337.12 992.386 337.476 993.058L347.665 1012.3C350.632 1017.9 349.736 1024.19 345.664 1026.34L340.996 1028.82C340.792 1028.92 340.507 1028.78 340.359 1028.5C340.29 1028.37 340.26 1028.23 340.276 1028.1ZM304.136 1026.65L314.223 1031.32C314.903 1031.65 315.571 1031.8 316.192 1031.79C316.708 1031.78 317.209 1031.67 317.668 1031.42L335.215 1022.13C335.419 1022.02 335.704 1022.16 335.853 1022.44C335.924 1022.58 335.953 1022.72 335.935 1022.86L334.747 1031.17C334.653 1031.83 334.326 1032.34 333.838 1032.6L319.854 1040.01C315.782 1042.16 310.075 1039.37 307.108 1033.77L303.707 1027.35C303.559 1027.07 303.604 1026.75 303.807 1026.64C303.902 1026.59 304.02 1026.6 304.136 1026.65ZM295.694 982.46L294.344 993.65C294.237 994.399 294.286 995.184 294.465 995.952C294.607 996.591 294.843 997.24 295.178 997.872L307.963 1022.01C308.112 1022.29 308.067 1022.61 307.863 1022.71C307.765 1022.77 307.643 1022.76 307.524 1022.7L299.982 1019.01C299.385 1018.72 298.85 1018.17 298.494 1017.5L288.305 998.264C285.338 992.662 286.233 986.372 290.305 984.216L294.973 981.744C295.177 981.636 295.462 981.775 295.61 982.055C295.68 982.186 295.709 982.331 295.694 982.46ZM355.282 963.539L356.709 962.783C357.683 962.267 359.046 962.933 359.754 964.269L360.967 966.561C361.005 966.632 361.078 966.667 361.129 966.64C360.897 964.238 361.231 962.224 362.13 960.6C363.03 958.976 364.277 957.742 365.87 956.898C367.588 955.988 369.366 955.606 371.203 955.752C373.04 955.898 374.847 956.477 376.622 957.487C378.398 958.499 380.081 959.903 381.673 961.699C383.265 963.496 384.69 965.583 385.948 967.958C387.206 970.334 388.116 972.693 388.677 975.036C389.238 977.379 389.445 979.565 389.3 981.593C389.154 983.622 388.641 985.429 387.76 987.014C386.88 988.599 385.643 989.814 384.05 990.658C382.988 991.22 381.968 991.56 380.99 991.676C380.011 991.793 379.079 991.77 378.193 991.608C377.307 991.446 376.497 991.2 375.763 990.872C375.029 990.543 374.379 990.184 373.813 989.795C373.736 989.836 373.718 989.956 373.775 990.063L382.399 1006.35C383.263 1007.98 383 1009.81 381.811 1010.44L380.492 1011.14C379.304 1011.77 377.64 1010.95 376.776 1009.32L354.694 967.632C353.83 966.001 354.094 964.168 355.282 963.539ZM380.325 970.936C379.661 969.681 378.871 968.55 377.957 967.542C377.043 966.534 376.06 965.734 375.007 965.144C373.955 964.554 372.88 964.205 371.783 964.097C370.686 963.989 369.622 964.208 368.591 964.754C367.56 965.3 366.781 966.057 366.253 967.025C365.726 967.993 365.411 969.078 365.308 970.281C365.205 971.484 365.313 972.746 365.634 974.068C365.954 975.391 366.447 976.68 367.111 977.935C367.776 979.19 368.565 980.321 369.479 981.329C370.393 982.338 371.377 983.137 372.429 983.727C373.482 984.317 374.557 984.667 375.654 984.774C376.751 984.882 377.815 984.663 378.846 984.117C379.877 983.571 380.656 982.814 381.183 981.846C381.71 980.878 382.026 979.793 382.129 978.59C382.232 977.387 382.123 976.125 381.803 974.802C381.482 973.48 380.99 972.191 380.325 970.936ZM385.505 947.532L387.115 946.679C388.143 946.134 389.582 946.837 390.329 948.248L391.614 950.674C391.652 950.745 391.724 950.78 391.776 950.753C391.404 948.54 391.523 946.611 392.132 944.968C392.742 943.325 393.797 942.107 395.296 941.313C395.64 941.131 395.999 940.998 396.375 940.914C397.045 940.763 397.841 941.246 398.275 942.065L400.619 946.492C401.091 947.382 400.947 948.382 400.299 948.725C400.229 948.762 400.155 948.791 400.077 948.81C399.565 948.938 399.09 949.118 398.653 949.349C397.341 950.044 396.47 950.95 396.042 952.066C395.613 953.183 395.425 954.301 395.478 955.421C395.531 956.541 395.725 957.586 396.059 958.557C396.393 959.528 396.679 960.237 396.917 960.686L404.503 975.01C405.367 976.641 405.104 978.474 403.916 979.103L402.596 979.802C401.408 980.432 399.744 979.619 398.88 977.988L384.918 951.625C384.054 949.993 384.317 948.161 385.505 947.532ZM404.529 937.456L405.848 936.757C407.037 936.128 408.7 936.94 409.564 938.571L423.527 964.934C424.391 966.566 424.128 968.398 422.94 969.028L421.62 969.726C420.432 970.356 418.768 969.544 417.904 967.912L403.942 941.549C403.078 939.918 403.341 938.085 404.529 937.456ZM395.777 928.059C395.088 926.759 394.825 925.449 394.986 924.13C395.147 922.811 395.743 921.878 396.774 921.332C397.805 920.786 398.915 920.786 400.105 921.333C401.294 921.879 402.257 922.847 402.993 924.237C403.729 925.626 403.988 926.966 403.772 928.258C403.556 929.549 402.932 930.467 401.902 931.013C400.871 931.559 399.764 931.528 398.582 930.92C397.4 930.312 396.465 929.359 395.777 928.059ZM429.712 933.561C427.961 933.014 426.641 932.976 425.751 933.447C425.001 933.844 424.41 934.502 423.976 935.421C423.543 936.339 423.646 937.403 424.287 938.613C424.809 939.599 425.486 940.159 426.317 940.293C427.148 940.427 428.099 940.411 429.171 940.245C430.244 940.079 431.392 939.887 432.616 939.668C433.841 939.451 435.09 939.449 436.364 939.664C437.638 939.879 438.892 940.434 440.126 941.33C441.361 942.226 442.536 943.727 443.652 945.834C444.672 947.761 445.244 949.539 445.366 951.167C445.488 952.795 445.303 954.256 444.808 955.551C444.314 956.846 443.584 957.979 442.618 958.95C441.652 959.921 440.592 960.712 439.436 961.324C437.686 962.251 435.888 962.744 434.04 962.805C433.316 962.828 432.327 962.629 431.073 962.208C429.605 961.714 428.445 959.954 428.482 958.276C428.486 958.134 428.498 957.994 428.519 957.858L428.687 956.765C428.918 955.256 430.17 954.533 431.557 955.107C432.117 955.339 432.581 955.5 432.949 955.591C434.168 955.892 435.372 955.728 436.559 955.1C436.965 954.884 437.351 954.594 437.717 954.228C438.083 953.862 438.371 953.423 438.579 952.91C438.788 952.398 438.885 951.844 438.87 951.25C438.855 950.655 438.681 950.044 438.349 949.417C437.756 948.296 437.02 947.624 436.141 947.4C435.263 947.177 434.282 947.137 433.198 947.281C432.114 947.424 430.971 947.628 429.771 947.891C428.57 948.154 427.345 948.2 426.094 948.03C424.844 947.86 423.614 947.349 422.403 946.498C421.192 945.647 420.041 944.191 418.949 942.129C418 940.336 417.432 938.642 417.248 937.047C417.063 935.452 417.167 934.005 417.559 932.707C417.951 931.409 418.587 930.268 419.467 929.286C420.347 928.303 421.349 927.514 422.473 926.919C423.973 926.125 425.653 925.708 427.512 925.67C428.186 925.657 429.042 925.839 430.079 926.216L430.08 926.216C431.547 926.749 432.677 928.531 432.605 930.197C432.599 930.335 432.584 930.47 432.561 930.601L432.34 931.877C432.101 933.254 430.995 933.963 429.712 933.561ZM438.594 919.414L439.633 918.864C440.821 918.234 442.485 919.047 443.349 920.678L444.455 922.767C444.241 920.928 444.328 919.147 444.807 917.371C445.287 915.596 446.465 914.212 448.338 913.22C451.869 911.35 455.268 912.104 458.537 915.48C458.256 912.989 458.47 910.939 459.178 909.33C459.886 907.721 461.084 906.469 462.77 905.576C464.27 904.782 465.725 904.47 467.137 904.641C468.546 904.813 469.904 905.357 471.209 906.272C472.514 907.188 473.753 908.412 474.924 909.944C476.095 911.476 477.191 913.205 478.212 915.132L486.832 931.406C487.696 933.038 487.432 934.871 486.245 935.499L484.925 936.199C483.736 936.828 482.073 936.015 481.209 934.384L473.088 919.051C472.566 918.065 471.999 917.146 471.388 916.293C470.775 915.441 470.129 914.75 469.449 914.221C468.769 913.691 468.057 913.366 467.312 913.243C466.567 913.122 465.774 913.283 464.93 913.73C464.054 914.194 463.437 914.822 463.078 915.615C462.719 916.408 462.55 917.301 462.575 918.292C462.601 919.282 462.793 920.329 463.157 921.427C463.518 922.527 463.973 923.592 464.519 924.623L472.212 939.149C473.076 940.78 472.813 942.613 471.624 943.243L470.306 943.941C469.117 944.571 467.452 943.759 466.588 942.128L457.969 925.853C456.901 923.837 455.757 922.391 454.533 921.518C453.311 920.644 452.013 920.571 450.637 921.3C449.701 921.796 449.03 922.438 448.627 923.225C448.224 924.013 448.014 924.899 447.996 925.884C447.978 926.869 448.136 927.905 448.471 928.99C448.806 930.075 449.258 931.156 449.828 932.232L457.592 946.892C458.456 948.523 458.194 950.356 457.005 950.986L455.686 951.684C454.497 952.314 452.834 951.502 451.97 949.87L438.007 923.507C437.143 921.876 437.406 920.043 438.594 919.414ZM480.392 897.277L481.71 896.578C482.899 895.949 484.563 896.76 485.427 898.392L499.39 924.755C500.254 926.386 499.99 928.219 498.802 928.849L497.483 929.547C496.294 930.177 494.63 929.365 493.766 927.734L479.803 901.37C478.939 899.739 479.203 897.906 480.392 897.277ZM471.638 887.88C470.95 886.58 470.687 885.27 470.848 883.951C471.01 882.632 471.605 881.699 472.636 881.153C473.667 880.607 474.778 880.607 475.967 881.154C477.157 881.7 478.119 882.668 478.855 884.058C479.591 885.447 479.851 886.787 479.635 888.078C479.419 889.369 478.795 890.288 477.764 890.834C476.733 891.38 475.627 891.349 474.445 890.741C473.263 890.133 472.327 889.18 471.638 887.88ZM509.14 892.185C508.778 892.058 508.471 891.971 508.22 891.921C507.192 891.72 506.304 891.817 505.555 892.214C504.524 892.76 503.746 893.517 503.218 894.485C502.69 895.453 502.375 896.538 502.272 897.741C502.168 898.943 502.278 900.206 502.597 901.528C502.917 902.851 503.411 904.14 504.075 905.394C504.74 906.649 505.529 907.781 506.443 908.789C507.357 909.797 508.34 910.597 509.393 911.187C510.446 911.777 511.52 912.126 512.618 912.234C513.716 912.341 514.779 912.122 515.81 911.576C516.684 911.113 517.36 910.425 517.838 909.512C517.934 909.328 518.023 909.099 518.105 908.826L518.105 908.826C518.522 907.449 519.865 906.968 521.207 907.716L522.761 908.581C524.127 909.343 524.994 911.161 524.695 912.641C524.659 912.823 524.604 912.995 524.535 913.154C524.11 914.125 523.617 914.989 523.058 915.744C522.497 916.5 521.916 917.138 521.311 917.659C520.706 918.18 520.155 918.573 519.656 918.837C517.968 919.731 516.161 920.171 514.235 920.158C512.308 920.146 510.406 919.69 508.529 918.79C506.654 917.889 504.843 916.567 503.099 914.822C501.355 913.077 499.806 910.927 498.453 908.372C497.1 905.817 496.192 903.328 495.728 900.905C495.265 898.482 495.188 896.241 495.497 894.184C495.807 892.125 496.499 890.295 497.571 888.694C498.643 887.094 500.022 885.847 501.71 884.953C503.147 884.192 504.799 883.819 506.666 883.834C507.378 883.84 508.315 884.028 509.474 884.4C510.945 884.87 512.12 886.617 512.104 888.3C512.103 888.425 512.094 888.548 512.08 888.668L511.871 890.375C511.687 891.877 510.508 892.659 509.14 892.185Z" fill="#969696"/>
</g>
<g style="mix-blend-mode:color-dodge">
<path fill-rule="evenodd" clip-rule="evenodd" d="M1111.28 587.569L1104.72 583.329C1104.2 582.993 1103.71 582.424 1103.35 581.749L1099.45 574.381C1095.84 567.571 1094.14 565.312 1092.07 563.216C1090.01 561.121 1087.88 559.746 1085.79 559.151C1083.69 558.557 1081.94 558.579 1078.13 560.595L1072.68 563.478C1072.53 563.562 1072.28 563.401 1072.13 563.12C1072.06 562.985 1072.02 562.84 1072.02 562.716L1072.2 554.91C1072.21 554.291 1072.43 553.831 1072.81 553.631L1074.7 552.628C1079.78 549.94 1082.12 549.911 1084.92 550.703C1087.71 551.496 1090.55 553.33 1093.3 556.123C1096.05 558.917 1098.32 561.93 1103.13 571.009L1111.57 586.951C1111.72 587.233 1111.71 587.528 1111.56 587.611C1111.48 587.651 1111.38 587.636 1111.28 587.569ZM1108.28 638.058L1108.46 630.252C1108.47 629.633 1108.69 629.173 1109.07 628.973L1113.19 626.792C1117 624.776 1118 623.336 1118.69 621.267C1119.37 619.199 1119.43 616.667 1118.86 613.783C1118.28 610.9 1117.37 608.221 1113.76 601.411L1108.6 591.671C1108.46 591.39 1108.46 591.094 1108.62 591.011C1108.7 590.971 1108.8 590.987 1108.9 591.054L1115.46 595.294C1115.98 595.63 1116.47 596.198 1116.83 596.873L1118.62 600.26C1123.43 609.34 1124.64 612.912 1125.41 616.757C1126.18 620.601 1126.1 623.978 1125.18 626.735C1124.27 629.493 1122.93 631.413 1117.85 634.101L1108.94 638.821C1108.79 638.904 1108.54 638.744 1108.39 638.463C1108.32 638.327 1108.28 638.182 1108.28 638.058ZM1064.93 607.821L1071.49 612.061C1072.01 612.397 1072.5 612.965 1072.86 613.64L1076.76 621.009C1080.37 627.818 1082.07 630.077 1084.13 632.173C1086.2 634.268 1088.32 635.643 1090.42 636.238C1092.52 636.832 1094.27 636.81 1098.08 634.794L1103.52 631.911C1103.68 631.827 1103.93 631.988 1104.08 632.269C1104.15 632.404 1104.19 632.55 1104.19 632.673L1104.01 640.48C1103.99 641.099 1103.77 641.558 1103.4 641.758L1101.5 642.761C1096.43 645.449 1094.09 645.478 1091.29 644.686C1088.5 643.893 1085.66 642.06 1082.91 639.266C1080.16 636.472 1077.89 633.46 1073.08 624.38L1064.64 608.438C1064.49 608.157 1064.49 607.861 1064.65 607.778C1064.73 607.738 1064.83 607.753 1064.93 607.821ZM1067.75 565.137C1067.74 565.756 1067.52 566.216 1067.14 566.416L1063.02 568.597C1059.21 570.613 1058.21 572.053 1057.52 574.122C1056.84 576.19 1056.78 578.722 1057.35 581.606C1057.93 584.489 1058.84 587.169 1062.44 593.978L1067.6 603.718C1067.75 603.999 1067.75 604.295 1067.59 604.378C1067.51 604.418 1067.41 604.403 1067.31 604.335L1060.75 600.095C1060.23 599.759 1059.74 599.191 1059.38 598.516L1057.59 595.129C1052.78 586.05 1051.56 582.477 1050.8 578.633C1050.03 574.788 1050.11 571.412 1051.02 568.654C1051.94 565.896 1053.28 563.976 1058.35 561.288L1067.26 556.568C1067.42 556.485 1067.67 556.645 1067.82 556.927C1067.89 557.062 1067.93 557.207 1067.93 557.331L1067.75 565.137ZM1097.45 578.651L1088.7 573.233C1088.11 572.851 1087.54 572.644 1087.04 572.598C1086.61 572.552 1086.21 572.616 1085.86 572.804L1072.31 579.979C1072.15 580.062 1071.9 579.902 1071.75 579.621C1071.68 579.485 1071.64 579.34 1071.65 579.216L1071.83 571.408C1071.84 570.789 1072.06 570.33 1072.44 570.13L1083.23 564.412C1086.38 562.747 1091.34 565.957 1094.32 571.581L1097.73 578.028C1097.88 578.309 1097.88 578.605 1097.72 578.688C1097.65 578.727 1097.55 578.714 1097.45 578.651ZM1108.64 621.588L1108.67 611.051C1108.69 610.347 1108.58 609.595 1108.35 608.845C1108.18 608.222 1107.92 607.581 1107.58 606.947L1094.75 582.71C1094.6 582.429 1094.6 582.134 1094.76 582.051C1094.84 582.011 1094.94 582.026 1095.04 582.093L1101.6 586.339C1102.12 586.675 1102.61 587.243 1102.97 587.918L1113.2 607.232C1116.18 612.856 1116.05 618.766 1112.9 620.431L1109.3 622.34C1109.14 622.423 1108.89 622.263 1108.74 621.981C1108.68 621.85 1108.64 621.709 1108.64 621.588ZM1078.76 616.738L1087.51 622.156C1088.1 622.538 1088.66 622.745 1089.17 622.791C1089.6 622.837 1090 622.773 1090.35 622.585L1103.9 615.41C1104.06 615.327 1104.31 615.487 1104.45 615.769C1104.53 615.904 1104.56 616.049 1104.56 616.173L1104.38 623.981C1104.37 624.6 1104.15 625.059 1103.77 625.259L1092.97 630.977C1089.83 632.642 1084.87 629.433 1081.89 623.808L1078.47 617.361C1078.32 617.08 1078.33 616.784 1078.49 616.701C1078.56 616.662 1078.66 616.675 1078.76 616.738ZM1067.57 573.808L1067.54 584.345C1067.52 585.049 1067.64 585.801 1067.86 586.551C1068.04 587.173 1068.29 587.814 1068.63 588.448L1081.46 612.685C1081.61 612.966 1081.61 613.262 1081.45 613.345C1081.37 613.385 1081.27 613.37 1081.17 613.302L1074.61 609.057C1074.09 608.721 1073.6 608.153 1073.24 607.478L1063.01 588.164C1060.03 582.539 1060.16 576.63 1063.31 574.964L1066.91 573.056C1067.07 572.973 1067.32 573.133 1067.47 573.414C1067.54 573.545 1067.57 573.686 1067.57 573.808ZM1114.79 561.488L1115.89 560.905C1116.65 560.507 1117.83 561.272 1118.54 562.614L1119.76 564.915C1119.8 564.986 1119.86 565.027 1119.9 565.006C1119.48 562.693 1119.56 560.806 1120.15 559.344C1120.73 557.882 1121.64 556.826 1122.87 556.174C1124.19 555.472 1125.62 555.278 1127.15 555.594C1128.67 555.909 1130.21 556.634 1131.77 557.768C1133.33 558.902 1134.85 560.401 1136.33 562.267C1137.81 564.132 1139.19 566.258 1140.45 568.643C1141.71 571.028 1142.69 573.364 1143.37 575.651C1144.06 577.938 1144.44 580.041 1144.52 581.961C1144.59 583.88 1144.34 585.554 1143.77 586.98C1143.2 588.407 1142.3 589.446 1141.07 590.098C1140.25 590.532 1139.44 590.757 1138.65 590.775C1137.85 590.792 1137.08 590.681 1136.34 590.441C1135.59 590.201 1134.9 589.89 1134.27 589.506C1133.63 589.123 1133.06 588.718 1132.56 588.293C1132.5 588.325 1132.5 588.438 1132.55 588.545L1141.21 604.892C1142.08 606.53 1142.04 608.252 1141.12 608.738L1140.1 609.277C1139.19 609.763 1137.74 608.829 1136.87 607.191L1114.7 565.334C1113.83 563.696 1113.87 561.974 1114.79 561.488ZM1136.11 570.942C1135.44 569.682 1134.68 568.528 1133.84 567.479C1132.99 566.431 1132.1 565.574 1131.18 564.911C1130.25 564.247 1129.34 563.811 1128.42 563.603C1127.51 563.395 1126.66 563.502 1125.86 563.924C1125.06 564.345 1124.5 564.992 1124.16 565.864C1123.81 566.736 1123.66 567.74 1123.69 568.877C1123.72 570.013 1123.93 571.227 1124.32 572.518C1124.71 573.81 1125.24 575.085 1125.91 576.345C1126.57 577.605 1127.33 578.759 1128.18 579.808C1129.03 580.857 1129.92 581.713 1130.84 582.377C1131.76 583.04 1132.68 583.476 1133.59 583.684C1134.51 583.892 1135.36 583.785 1136.16 583.363C1136.95 582.942 1137.52 582.295 1137.86 581.423C1138.2 580.551 1138.36 579.547 1138.33 578.41C1138.3 577.274 1138.09 576.06 1137.7 574.769C1137.31 573.478 1136.78 572.202 1136.11 570.942ZM1138.13 549.13L1139.37 548.472C1140.16 548.051 1141.41 548.859 1142.16 550.275L1143.46 552.711C1143.49 552.782 1143.56 552.823 1143.6 552.802C1143.08 550.657 1142.99 548.83 1143.33 547.322C1143.68 545.815 1144.43 544.755 1145.59 544.142C1145.85 544.001 1146.14 543.909 1146.44 543.864C1146.97 543.786 1147.67 544.322 1148.11 545.145L1150.46 549.589C1150.94 550.482 1150.92 551.422 1150.41 551.687C1150.36 551.715 1150.3 551.735 1150.24 551.746C1149.83 551.819 1149.46 551.945 1149.12 552.124C1148.11 552.66 1147.48 553.44 1147.23 554.463C1146.99 555.486 1146.94 556.534 1147.09 557.607C1147.24 558.679 1147.5 559.694 1147.87 560.651C1148.24 561.609 1148.54 562.313 1148.78 562.763L1156.4 577.144C1157.26 578.782 1157.22 580.504 1156.3 580.99L1155.29 581.529C1154.37 582.015 1152.92 581.081 1152.05 579.443L1138.04 552.975C1137.17 551.337 1137.21 549.616 1138.13 549.13ZM1152.81 541.351L1153.83 540.811C1154.75 540.325 1156.2 541.259 1157.06 542.897L1171.08 569.365C1171.95 571.003 1171.91 572.725 1170.99 573.21L1169.97 573.75C1169.06 574.236 1167.61 573.302 1166.74 571.664L1152.72 545.196C1151.86 543.558 1151.9 541.837 1152.81 541.351ZM1144.71 531.554C1144.02 530.249 1143.68 528.976 1143.68 527.734C1143.69 526.491 1144.09 525.66 1144.89 525.238C1145.68 524.817 1146.6 524.923 1147.63 525.558C1148.66 526.193 1149.54 527.208 1150.28 528.603C1151.02 529.998 1151.36 531.301 1151.31 532.511C1151.26 533.721 1150.83 534.536 1150.03 534.958C1149.24 535.379 1148.33 535.244 1147.29 534.551C1146.26 533.858 1145.4 532.859 1144.71 531.554ZM1173.16 540.054C1171.67 539.365 1170.58 539.202 1169.89 539.566C1169.31 539.872 1168.89 540.443 1168.62 541.276C1168.35 542.11 1168.54 543.134 1169.18 544.349C1169.71 545.339 1170.32 545.938 1171.02 546.145C1171.71 546.353 1172.49 546.428 1173.36 546.373C1174.23 546.318 1175.15 546.245 1176.14 546.154C1177.13 546.064 1178.15 546.182 1179.22 546.509C1180.29 546.836 1181.38 547.486 1182.48 548.458C1183.58 549.43 1184.69 550.974 1185.81 553.089C1186.84 555.024 1187.48 556.773 1187.73 558.337C1187.99 559.901 1187.98 561.276 1187.69 562.463C1187.41 563.65 1186.92 564.659 1186.22 565.492C1185.52 566.325 1184.72 566.977 1183.83 567.45C1182.48 568.165 1181.04 568.463 1179.53 568.343C1178.94 568.297 1178.1 568.012 1177.03 567.49C1175.78 566.879 1174.65 565.09 1174.52 563.494C1174.51 563.358 1174.51 563.227 1174.51 563.099L1174.55 562.073C1174.59 560.657 1175.55 560.088 1176.75 560.769C1177.23 561.043 1177.63 561.241 1177.94 561.363C1178.97 561.767 1179.95 561.726 1180.86 561.241C1181.18 561.075 1181.47 560.835 1181.73 560.521C1182 560.207 1182.19 559.816 1182.32 559.348C1182.44 558.88 1182.47 558.361 1182.4 557.793C1182.33 557.225 1182.12 556.626 1181.79 555.996C1181.2 554.871 1180.53 554.16 1179.78 553.862C1179.04 553.565 1178.23 553.433 1177.35 553.466C1176.47 553.499 1175.55 553.583 1174.59 553.718C1173.62 553.854 1172.62 553.78 1171.57 553.498C1170.53 553.216 1169.47 552.612 1168.39 551.685C1167.31 550.757 1166.22 549.259 1165.13 547.189C1164.18 545.389 1163.55 543.72 1163.24 542.181C1162.94 540.643 1162.88 539.274 1163.08 538.074C1163.28 536.874 1163.69 535.848 1164.32 534.996C1164.95 534.144 1165.7 533.488 1166.57 533.028C1167.73 532.415 1169.07 532.18 1170.6 532.322C1171.15 532.373 1171.87 532.629 1172.76 533.088L1172.76 533.088C1174.02 533.737 1175.12 535.544 1175.22 537.125C1175.23 537.256 1175.23 537.384 1175.22 537.506L1175.16 538.701C1175.1 539.991 1174.26 540.56 1173.16 540.054ZM1179.11 527.421L1179.92 526.997C1180.83 526.511 1182.28 527.444 1183.15 529.082L1184.26 531.179C1183.91 529.406 1183.81 527.716 1184.03 526.07C1184.26 524.425 1185.09 523.218 1186.54 522.452C1189.26 521.008 1192.13 522.053 1195.15 525.585C1194.68 523.183 1194.66 521.25 1195.09 519.784C1195.51 518.318 1196.38 517.24 1197.68 516.551C1198.84 515.938 1200.01 515.78 1201.18 516.078C1202.36 516.377 1203.53 517.026 1204.69 518.024C1205.85 519.022 1206.99 520.307 1208.1 521.879C1209.21 523.452 1210.28 525.205 1211.3 527.14L1219.96 543.479C1220.83 545.117 1220.78 546.839 1219.87 547.325L1218.85 547.864C1217.93 548.35 1216.48 547.416 1215.62 545.778L1207.46 530.384C1206.94 529.395 1206.39 528.464 1205.8 527.592C1205.21 526.721 1204.62 526.001 1204.01 525.431C1203.4 524.861 1202.78 524.482 1202.15 524.294C1201.53 524.107 1200.89 524.185 1200.24 524.53C1199.56 524.888 1199.12 525.428 1198.9 526.149C1198.68 526.87 1198.62 527.705 1198.74 528.652C1198.86 529.599 1199.12 530.614 1199.52 531.697C1199.92 532.78 1200.4 533.838 1200.95 534.873L1208.67 549.457C1209.54 551.095 1209.5 552.817 1208.58 553.303L1207.56 553.842C1206.64 554.328 1205.2 553.395 1204.33 551.757L1195.68 535.418C1194.6 533.393 1193.52 531.905 1192.43 530.956C1191.34 530.006 1190.27 529.812 1189.21 530.374C1188.48 530.757 1187.99 531.305 1187.74 532.017C1187.48 532.729 1187.39 533.553 1187.47 534.49C1187.55 535.428 1187.78 536.43 1188.16 537.497C1188.54 538.563 1189.02 539.636 1189.59 540.716L1197.38 555.435C1198.25 557.073 1198.21 558.795 1197.29 559.281L1196.27 559.82C1195.36 560.306 1193.91 559.372 1193.04 557.735L1179.02 531.267C1178.16 529.629 1178.2 527.907 1179.11 527.421ZM1211.39 510.33L1212.4 509.791C1213.32 509.305 1214.77 510.238 1215.64 511.876L1229.65 538.344C1230.52 539.982 1230.48 541.704 1229.56 542.19L1228.54 542.729C1227.63 543.215 1226.18 542.282 1225.31 540.644L1211.29 514.176C1210.43 512.538 1210.47 510.816 1211.39 510.33ZM1203.28 500.534C1202.59 499.229 1202.25 497.955 1202.25 496.713C1202.26 495.471 1202.66 494.639 1203.46 494.217C1204.25 493.796 1205.17 493.902 1206.2 494.538C1207.23 495.173 1208.11 496.188 1208.85 497.583C1209.59 498.978 1209.93 500.28 1209.88 501.49C1209.83 502.7 1209.4 503.515 1208.6 503.937C1207.81 504.359 1206.9 504.223 1205.86 503.53C1204.83 502.837 1203.97 501.839 1203.28 500.534ZM1234.55 508.234C1234.24 508.079 1233.98 507.966 1233.77 507.895C1232.91 507.604 1232.18 507.612 1231.61 507.918C1230.81 508.34 1230.24 508.986 1229.9 509.859C1229.56 510.731 1229.4 511.735 1229.43 512.871C1229.46 514.008 1229.68 515.221 1230.07 516.513C1230.46 517.804 1230.99 519.08 1231.65 520.34C1232.32 521.599 1233.08 522.754 1233.93 523.802C1234.78 524.851 1235.66 525.707 1236.58 526.371C1237.51 527.035 1238.42 527.47 1239.34 527.678C1240.25 527.886 1241.11 527.779 1241.9 527.357C1242.58 527 1243.07 526.409 1243.37 525.585C1243.43 525.418 1243.48 525.209 1243.53 524.956L1243.53 524.957C1243.74 523.684 1244.8 523.354 1245.97 524.196L1247.33 525.169C1248.53 526.027 1249.42 527.843 1249.31 529.225C1249.3 529.395 1249.27 529.553 1249.23 529.698C1248.98 530.583 1248.65 531.359 1248.27 532.025C1247.88 532.692 1247.46 533.244 1247.01 533.683C1246.56 534.122 1246.15 534.443 1245.76 534.647C1244.46 535.337 1243.02 535.584 1241.43 535.387C1239.84 535.19 1238.23 534.573 1236.6 533.535C1234.97 532.497 1233.36 531.062 1231.75 529.232C1230.15 527.401 1228.67 525.204 1227.31 522.639C1225.95 520.073 1224.97 517.614 1224.35 515.26C1223.74 512.905 1223.46 510.762 1223.52 508.831C1223.58 506.898 1223.97 505.221 1224.7 503.797C1225.43 502.374 1226.44 501.318 1227.75 500.628C1228.85 500.041 1230.18 499.843 1231.72 500.037C1232.3 500.111 1233.09 500.38 1234.08 500.846C1235.34 501.435 1236.47 503.213 1236.62 504.816C1236.63 504.935 1236.63 505.051 1236.63 505.164L1236.63 506.771C1236.62 508.185 1235.72 508.817 1234.55 508.234Z" fill="#969696"/>
</g>
<g style="mix-blend-mode:color-dodge">
<path fill-rule="evenodd" clip-rule="evenodd" d="M624.702 805.544C623.27 802.935 619.356 803.562 618.811 806.489L610.593 850.647C609.623 855.859 615.102 859.886 619.787 857.405L645.312 843.885L656.222 863.759C657.655 866.368 661.569 865.74 662.113 862.814L670.332 818.656C671.301 813.444 665.823 809.417 661.138 811.898L635.444 825.506L624.702 805.544ZM836.582 744.172L838.4 747.605L831.029 751.509L809.091 710.088L816.576 706.123L825.242 722.486C825.439 719.818 827.555 716.353 831.727 714.143C839.955 709.785 848.062 713.623 852.486 721.976C857.001 730.5 855.107 739.635 847.106 743.873C843.22 745.931 839.34 745.789 836.582 744.172ZM842.186 737.761C846.072 735.703 847.643 731.208 844.915 726.059C842.188 720.91 837.618 719.741 833.732 721.799C829.904 723.826 828.189 728.324 830.916 733.473C833.613 738.565 838.358 739.788 842.186 737.761ZM794.451 761.066C796.784 765.471 802.592 767.596 808.593 764.418C812.763 762.209 814.419 758.842 814.665 755.854C815.241 756.941 816.174 758.425 816.739 759.078L823.711 755.386C823.024 754.504 821.793 752.592 821.005 751.104L813.672 737.259C810.672 731.595 804.691 728.316 795.777 733.037C788.234 737.032 786.752 744.044 788.629 748.691L796.129 746.551C795.055 743.969 795.762 740.884 799.076 739.129C802.276 737.434 804.698 738.276 805.758 740.278C806.273 741.251 806.184 742.324 804.705 743.4L798.336 748.092C794.014 751.26 791.784 756.031 794.451 761.066ZM807.192 757.907C804.735 759.208 802.686 758.242 801.808 756.583C800.656 754.409 801.623 752.505 803.415 751.19L809.243 746.858L809.91 748.116C812.546 753.094 810.392 756.212 807.192 757.907ZM699.086 811.354C701.125 814.377 706.948 818.326 715.406 813.846C722.777 809.942 723.836 803.374 721.412 798.797C719.23 794.678 714.642 792.786 708.493 794.577L704.038 795.838C702.344 796.369 700.861 796.055 700.134 794.682C699.285 793.08 700.249 791.031 702.249 789.972C705.449 788.277 707.77 789.758 708.878 791.296L714.463 786.507C712.514 783.656 707.132 779.987 699.132 784.224C693.074 787.432 690.829 793.969 693.496 799.004C695.587 802.951 699.77 804.911 705.836 803.237L710.005 802.128C712.418 801.436 713.821 802.012 714.488 803.27C715.276 804.758 714.772 806.709 712.258 808.041C708.944 809.796 706.195 808.614 704.843 806.474L699.086 811.354ZM750.154 794.344L757.411 790.5C756.782 789.588 755.58 787.734 754.428 785.559L742.217 762.503L734.616 766.529L743.282 782.891C745.01 786.152 744.279 789.47 740.908 791.255C737.365 793.131 734.431 791.462 732.765 788.315L724.159 772.067L716.559 776.092L725.983 793.885C729.225 800.007 735.747 802.926 742.547 799.325C745.518 797.751 748.171 794.881 748.319 791.432C748.925 792.576 749.736 793.832 750.154 794.344ZM771.381 779.584L778.593 793.2L770.993 797.225L750.328 758.207L757.699 754.303L759.517 757.736C759.623 754.896 761.766 751.343 765.994 749.104C774.223 744.746 782.299 748.527 786.723 756.88C791.237 765.405 789.257 774.512 781.314 778.719C777.428 780.777 773.752 780.746 771.381 779.584ZM776.508 772.547C780.394 770.488 781.934 765.937 779.267 760.902C776.631 755.925 772 754.641 768.114 756.699C764.229 758.757 762.632 763.339 765.268 768.316C767.904 773.294 772.623 774.604 776.508 772.547ZM860.244 726.219C862.578 730.625 868.386 732.75 874.386 729.572C878.557 727.363 880.213 723.995 880.459 721.007C881.035 722.094 881.968 723.578 882.533 724.231L889.504 720.539C888.819 719.657 887.587 717.745 886.799 716.258L879.466 702.412C876.466 696.748 870.485 693.469 861.571 698.191C854.028 702.186 852.546 709.197 854.422 713.845L861.922 711.704C860.848 709.123 861.556 706.037 864.869 704.282C868.07 702.587 870.492 703.429 871.552 705.432C872.067 706.404 871.977 707.478 870.498 708.554L864.13 713.246C859.808 716.414 857.578 721.185 860.244 726.219ZM872.987 723.06C870.529 724.362 868.48 723.396 867.602 721.737C866.45 719.563 867.417 717.658 869.209 716.343L875.037 712.011L875.703 713.27C878.34 718.247 876.186 721.366 872.987 723.06ZM906.592 712.588C898.135 717.067 892.311 713.119 890.272 710.096L896.029 705.215C897.382 707.356 900.13 708.538 903.444 706.783C905.959 705.451 906.462 703.5 905.674 702.012C905.008 700.753 903.605 700.177 901.191 700.87L897.022 701.979C890.956 703.653 886.773 701.693 884.682 697.745C882.016 692.711 884.26 686.174 890.318 682.966C898.318 678.729 903.7 682.398 905.649 685.249L900.065 690.038C898.957 688.5 896.636 687.019 893.435 688.714C891.435 689.773 890.472 691.822 891.32 693.424C892.048 694.797 893.53 695.111 895.224 694.58L899.679 693.319C905.828 691.527 910.415 693.42 912.597 697.54C915.021 702.116 913.964 708.684 906.592 712.588ZM919.443 682.558C918.251 679.893 918.847 675.768 922.79 673.679C927.133 671.379 930.416 673.157 932.015 675.9L919.443 682.558ZM936.637 682.829C937.056 685.831 936.052 688.634 932.509 690.51C928.737 692.508 924.17 691.483 922.03 687.855L942.144 677.202C942.129 677.174 942.088 677.08 942.027 676.939C941.837 676.504 941.45 675.616 941.015 674.796C936.228 665.756 928.089 662.961 919.403 667.561C912.203 671.374 908.665 680.721 913.422 689.703C918.452 699.2 928.191 701.149 935.906 697.062C942.82 693.4 945.126 686.978 943.98 681.358L936.637 682.829Z" fill="#969696"/>
</g>
</g>
<defs>
<filter id="filter0_f_101_316" x="-38" y="0.927734" width="1314" height="1314" filterUnits="userSpaceOnUse" color-interpolation-filters="sRGB">
<feFlood flood-opacity="0" result="BackgroundImageFix"/>
<feBlend mode="normal" in="SourceGraphic" in2="BackgroundImageFix" result="shape"/>
<feGaussianBlur stdDeviation="100" result="effect1_foregroundBlur_101_316"/>
</filter>
<filter id="filter1_f_101_316" x="165" y="156.803" width="1114" height="1114" filterUnits="userSpaceOnUse" color-interpolation-filters="sRGB">
<feFlood flood-opacity="0" result="BackgroundImageFix"/>
<feBlend mode="normal" in="SourceGraphic" in2="BackgroundImageFix" result="shape"/>
<feGaussianBlur stdDeviation="50" result="effect1_foregroundBlur_101_316"/>
</filter>
<linearGradient id="paint0_linear_101_316" x1="281.5" y1="963.928" x2="987.5" y2="390.928" gradientUnits="userSpaceOnUse">
<stop stop-color="#01A6DC"/>
<stop offset="0.557292" stop-color="#8801E4"/>
<stop offset="1" stop-color="#F5CBE1"/>
</linearGradient>
<linearGradient id="paint1_linear_101_316" x1="418.5" y1="1053" x2="1124.5" y2="480" gradientUnits="userSpaceOnUse">
<stop stop-color="#01A6DC"/>
<stop offset="0.557292" stop-color="#8801E4"/>
<stop offset="1" stop-color="#F5CBE1"/>
</linearGradient>
<radialGradient id="paint2_radial_101_316" cx="0" cy="0" r="1" gradientUnits="userSpaceOnUse" gradientTransform="translate(756 747) rotate(90) scale(457)">
<stop stop-color="white" stop-opacity="0"/>
<stop offset="0.963542" stop-color="white" stop-opacity="0"/>
<stop offset="1" stop-color="white" stop-opacity="0.36"/>
</radialGradient>
</defs>
</svg>
